<svg width="112" height="112" viewBox="0 0 112 112" fill="none" xmlns="http://www.w3.org/2000/svg">
<circle cx="56" cy="56" r="55.5" fill="url(#paint0_radial_49_200)" fill-opacity="0.5" stroke="#C07858"/>
<path fill-rule="evenodd" clip-rule="evenodd" d="M60.8963 52.0211C61.4542 52.1638 62.023 52.3104 62.5894 52.462C61.8826 53.0999 61.4376 54.0226 61.4376 55.0473V82.3125C61.4376 82.9243 61.5965 83.4998 61.8748 84H37.5056V67.147C37.5056 66.5456 37.0181 66.0583 36.4168 66.0583C35.8156 66.0583 35.3281 66.5458 35.3281 67.147V84H34.4848C31.5206 84 29.0843 81.6645 28.9592 78.7027C28.7073 72.732 28.5931 66.9226 28.9373 60.6723C29.2093 57.1345 30.0008 55.805 32.2218 54.5029C33.9244 53.5045 36.9009 52.7162 39.6183 52.0211L46.3229 50.3721C47.6756 50.0394 48.9666 49.873 50.2574 49.873C51.5482 49.873 52.8391 50.0394 54.1918 50.3721L60.8965 52.0211H60.8963ZM77.0616 49.1416C77.0616 48.677 76.6826 48.2978 76.2179 48.2978H70.4748C70.01 48.2978 69.631 48.6769 69.631 49.1416V51.883H77.0616V49.1416ZM83.4596 55.0472V82.3124C83.4596 83.2419 82.7015 83.9999 81.7721 83.9999H64.9206C63.9912 83.9999 63.2332 83.2418 63.2332 82.3124V55.0472C63.2332 54.1178 63.9912 53.3597 64.9206 53.3597H81.7721C82.7015 53.3597 83.4596 54.1178 83.4596 55.0472ZM79.7445 57.5983C79.7445 57.0165 79.2682 56.5402 78.6862 56.5402H68.0064C67.4244 56.5402 66.9483 57.0165 66.9483 57.5983V79.7613C66.9483 80.3433 67.4245 80.8195 68.0064 80.8195H78.6862C79.2682 80.8195 79.7445 80.3433 79.7445 79.7613V57.5983ZM68.7577 78.3124C68.7577 78.7696 69.1318 79.1437 69.589 79.1437H77.1037C77.5611 79.1437 77.9351 78.7696 77.9351 78.3124V71.5181H68.7577V78.3124ZM34.3114 41.2236C34.3532 41.2545 34.3968 41.2812 34.4417 41.3039C34.59 41.3922 35.5545 42.051 34.2972 43.61C31.6727 46.8641 34.5507 48.9304 34.5589 48.9365C34.9541 49.2295 35.5121 49.1467 35.8051 48.7515C36.0981 48.3562 36.0153 47.7983 35.6201 47.5052C35.6162 47.5023 34.2412 46.5194 35.6866 44.7272C38.1352 41.6912 35.8281 40.0646 35.3455 39.7712C35.1595 39.6203 34.1139 38.6575 35.4391 37.0143C38.1539 33.6481 35.0225 32.0143 35.0135 32.0096C34.5798 31.7783 34.0405 31.9424 33.8092 32.3761C33.5778 32.8099 33.7419 33.3491 34.1757 33.5805C34.1792 33.5823 35.4047 34.217 34.0497 35.8972C31.4252 39.1513 34.3032 41.2175 34.3114 41.2236ZM29.9085 41.2236C29.9503 41.2545 29.9938 41.2812 30.0387 41.3039C30.1871 41.3922 31.1516 42.051 29.8943 43.61C27.2698 46.8641 30.1478 48.9304 30.156 48.9365C30.5513 49.2295 31.1093 49.1467 31.4023 48.7515C31.6953 48.3562 31.6125 47.7983 31.2173 47.5052C31.2134 47.5023 29.8383 46.5194 31.2838 44.7272C33.7323 41.6912 31.4253 40.0646 30.9427 39.7712C30.7567 39.6203 29.711 38.6575 31.0363 37.0143C33.7511 33.6481 30.6196 32.0143 30.6107 32.0096C30.1769 31.7783 29.6377 31.9424 29.4064 32.3761C29.175 32.8099 29.3391 33.3491 29.7729 33.5805C29.7763 33.5823 31.0019 34.217 29.6469 35.8972C27.0224 39.1513 29.9005 41.2176 29.9086 41.2237L29.9085 41.2236ZM43.1934 44.3453C39.045 38.3351 40.3204 28 50.2571 28C60.1939 28 61.4694 38.3351 57.3208 44.3453C55.4166 47.1041 52.8321 48.456 50.2571 48.4532C47.6822 48.456 45.0976 47.1042 43.1934 44.3453ZM52.4335 37.426C52.4383 37.4294 54.1108 38.6723 56.1848 37.4749C56.6109 37.23 56.7578 36.6861 56.513 36.2601C56.2683 35.834 55.7242 35.6871 55.2982 35.9319C54.2368 36.5446 53.4829 35.9824 53.4808 35.9808C53.0816 35.6916 52.5236 35.7807 52.2345 36.1797C51.9453 36.5789 52.0344 37.1369 52.4335 37.426ZM48.3412 42.6698C47.9421 42.959 47.853 43.5169 48.1422 43.916C48.4315 44.3151 48.9893 44.4042 49.3885 44.115C49.3907 44.1134 50.1447 43.5512 51.206 44.1639C51.6321 44.4087 52.176 44.2617 52.4209 43.8357C52.6657 43.4096 52.5187 42.8657 52.0926 42.6208C50.0185 41.4234 48.3461 42.6662 48.3412 42.6698ZM44.2489 37.426C44.2537 37.4294 45.9263 38.6723 48.0004 37.4749C48.4264 37.23 48.5733 36.6861 48.3286 36.2601C48.0838 35.834 47.5398 35.6871 47.1137 35.9319C46.0524 36.5446 45.2984 35.9824 45.2963 35.9808C44.8972 35.6916 44.3392 35.7807 44.0501 36.1797C43.7609 36.5789 43.8499 37.1369 44.2489 37.426Z" fill="#C07858"/>
<defs>
<radialGradient id="paint0_radial_49_200" cx="0" cy="0" r="1" gradientUnits="userSpaceOnUse" gradientTransform="translate(56 56) rotate(90) scale(56)">
<stop stop-color="#FEEAE0"/>
<stop offset="1" stop-color="#FAB89B" stop-opacity="0.22"/>
</radialGradient>
</defs>
</svg>
