<svg width="112" height="112" viewBox="0 0 112 112" fill="none" xmlns="http://www.w3.org/2000/svg">
<circle cx="56" cy="56" r="55.5" fill="url(#paint0_radial_49_254)" fill-opacity="0.5" stroke="#C07858"/>
<path d="M70.2405 36.561C67.8696 36.8042 63.0491 37.9249 56.9146 42.6492C52.7252 45.8757 49.9263 47.2254 48.2963 47.789C47.3528 45.3988 46.9273 43.1592 47.0308 41.1241C47.0308 41.1212 47.0312 41.1179 47.0312 41.115C47.1377 39.0562 47.7698 37.4685 48.5008 36.2967C48.5019 36.2956 48.5027 36.2942 48.5034 36.2923C48.5081 36.2861 48.5121 36.2799 48.5161 36.2734C48.5201 36.2672 48.5238 36.2606 48.5278 36.254C49.2613 35.0925 50.0893 34.3469 50.5848 33.9641C51.0529 33.6024 51.2771 33.0166 51.1703 32.4347L50.5895 29.276C50.5662 29.1484 50.646 29.0229 50.7718 28.9905L53.0081 28.4148C53.0997 28.3915 53.1704 28.4247 53.2047 28.4469C53.2389 28.4691 53.2984 28.5198 53.3148 28.6131L53.8328 31.5987C53.9644 32.3574 54.636 32.9032 55.3859 32.9028C55.4621 32.9028 55.5391 32.8973 55.6164 32.886L57.0532 32.6706C57.8363 32.5528 58.412 31.8674 58.393 31.0759L58.3237 28.2544C58.3216 28.1603 58.3697 28.0991 58.3985 28.0707C58.4273 28.0426 58.4907 27.9959 58.5833 28.0003L60.9473 28.1071C61.0785 28.1133 61.1824 28.2205 61.1843 28.3517L61.2251 31.1382C61.2368 31.9615 61.8901 32.6414 62.7122 32.6866L63.9401 32.7544C64.7918 32.8015 65.5344 32.147 65.5957 31.2965L65.7842 28.6824C65.7911 28.5891 65.8447 28.5329 65.8757 28.5074C65.9067 28.4819 65.9734 28.4414 66.066 28.4542L68.24 28.7557C68.3672 28.7736 68.4591 28.8833 68.454 29.012L68.318 32.2677C68.302 32.6531 68.4267 33.0293 68.6695 33.3268C69.0607 33.8062 69.9244 35.0028 70.2405 36.561Z" fill="#C07858"/>
<path d="M41.777 31.3303C41.5878 31.7489 41.2057 32.166 40.7289 32.474C39.7773 33.0891 38.7634 33.0792 38.4925 32.66C38.2213 32.2407 38.6292 31.3121 39.5808 30.6974C40.0974 30.3635 40.6319 30.214 41.0566 30.214C41.2353 30.214 41.3942 30.2406 41.5244 30.2909C41.6545 30.3416 41.7552 30.416 41.8171 30.5119C41.9404 30.7022 41.9258 31.0008 41.777 31.3303Z" fill="#C07858"/>
<path d="M47.1637 36.145C46.5086 37.3321 45.9719 38.8414 45.8246 40.7037C44.9493 41.1879 44.1352 41.7304 43.3848 42.3294C41.0883 38.6879 39.7503 35.7903 39.0879 34.1865C39.1437 34.1901 39.2002 34.1916 39.2571 34.1916C39.9323 34.1916 40.6884 33.9659 41.3964 33.508C42.0333 33.0964 42.5412 32.5506 42.8402 31.9592C44.3896 34.0246 45.7098 35.1803 47.1637 36.145Z" fill="#C07858"/>
<path d="M70.5896 45.9198C69.2112 46.7427 67.7419 47.3876 66.3 48.0209C64.7687 48.6932 63.2852 49.3443 61.9359 50.1756C63.7206 51.6153 65.3557 53.1371 66.0991 56.7851L68.3478 63.3067C68.459 63.6283 68.288 63.9783 67.9665 64.0891C67.9005 64.1121 67.8327 64.123 67.7659 64.123C67.5104 64.123 67.2719 63.963 67.1841 63.7081L65.3933 58.5143L63.745 61.7434C63.636 61.9563 63.4205 62.0792 63.1967 62.0792C63.1026 62.0792 63.0071 62.0573 62.9174 62.0114C62.6148 61.8571 62.4941 61.4864 62.649 61.1838L64.857 56.8584C64.1467 53.5687 62.6979 52.3583 60.8692 50.8978C60.2239 51.378 59.6197 51.9186 59.0678 52.5468C57.4844 54.3489 57.2091 56.6648 56.9171 59.1166C56.6101 61.6978 56.2926 64.3673 54.3942 66.5632C54.2724 66.7039 54.1007 66.7761 53.9283 66.7761C53.7857 66.7761 53.6424 66.7269 53.5258 66.6262C53.2687 66.4038 53.2403 66.0156 53.4627 65.7582C55.1142 63.8481 55.3964 61.4791 55.6947 58.9711C55.9958 56.4409 56.3072 53.8239 58.1425 51.7345C58.8596 50.9182 59.6584 50.2368 60.5082 49.6448C60.529 49.6287 60.5505 49.6138 60.5731 49.5999C62.2079 48.4734 64.0261 47.6753 65.8049 46.894C67.4036 46.1922 68.9479 45.5144 70.3457 44.6296C70.3749 44.607 70.4059 44.5873 70.4376 44.5709C71.2732 44.0349 72.0545 43.4224 72.7629 42.6838C73.4935 41.9218 73.7681 40.8361 73.48 39.8492C73.4709 39.8182 73.4611 39.7868 73.4512 39.7558C73.0462 38.4798 71.776 37.6489 70.4318 37.7794C68.2195 37.9942 63.6192 39.0383 57.6638 43.6255C54.0004 46.447 50.8625 48.2794 48.3367 49.0716C48.2659 49.0939 48.1967 49.1147 48.1289 49.1347C48.1201 49.1373 48.111 49.1402 48.1023 49.1424C46.3209 49.6619 45.494 49.4431 45.3413 49.3925L45.7328 48.2254C45.7328 48.2254 45.7274 48.2232 45.7161 48.22C45.7481 48.2276 46.1762 48.3206 47.104 48.1252C46.2874 46.0241 45.8469 44.0207 45.7897 42.1471C45.0846 42.5781 44.3755 43.083 43.6897 43.6747C43.6631 43.7028 43.6336 43.7291 43.6011 43.7517C40.4282 46.5338 37.7974 51.1928 38.5298 58.958C38.9626 63.5517 40.531 68.0937 43.0659 72.0928C45.4441 75.8454 49.5201 80.8624 55.4311 83.4553C56.2656 83.821 57.1566 84 58.0422 84C59.5559 84 61.0547 83.4783 62.236 82.4786C65.153 80.0107 67.903 75.4958 70.1893 69.4211C72.4563 63.3968 73.4709 58.1213 73.2033 53.7412C72.9634 49.7917 71.7144 47.3475 70.5896 45.9198ZM57.0093 78.7712C56.9043 78.9939 56.683 79.1244 56.4523 79.1244C56.364 79.1244 56.2751 79.1055 56.1905 79.0658C53.0409 77.5815 50.0746 74.9 48.0516 71.7085C47.8696 71.4216 47.9546 71.0409 48.2419 70.859C48.5288 70.6771 48.9094 70.762 49.0914 71.0493C50.9923 74.0487 53.7715 76.5647 56.7151 77.952C57.0225 78.0967 57.1544 78.4635 57.0093 78.7712Z" fill="#C07858"/>
<defs>
<radialGradient id="paint0_radial_49_254" cx="0" cy="0" r="1" gradientUnits="userSpaceOnUse" gradientTransform="translate(56 56) rotate(90) scale(56)">
<stop stop-color="#FEEAE0"/>
<stop offset="1" stop-color="#FAB89B" stop-opacity="0.22"/>
</radialGradient>
</defs>
</svg>
