<svg width="112" height="112" viewBox="0 0 112 112" fill="none" xmlns="http://www.w3.org/2000/svg">
<path d="M68.9065 79.2167C67.857 80.1685 66.3244 80.073 65.3888 79.1372C64.4631 78.2557 64.3505 76.654 65.3093 75.6196C64.8668 74.8707 64.5491 74.099 64.3221 73.2706C62.9718 73.2026 61.8937 72.0792 61.8937 70.7175C61.8937 69.3445 62.9831 68.221 64.3335 68.1643C64.5604 67.3473 64.8781 66.5643 65.3093 65.8381C65.0484 65.5544 64.8555 65.214 64.7533 64.8622C64.0611 64.692 63.3235 64.6012 62.5746 64.6012H60.5094V65.1799L55.4484 72.0451C55.0399 72.5898 54.4045 72.9075 53.7236 72.9075C53.0428 72.9075 52.4073 72.5898 51.9988 72.0451L46.9492 65.1799V64.6012H44.8613C39.823 64.6012 35.7266 68.6977 35.7266 73.7359V79.194C35.7266 80.9529 37.1563 82.3713 38.9152 82.3713H68.532C69.7462 82.3713 70.7902 81.7018 71.3234 80.7032C71.2781 80.533 71.2554 80.3514 71.2441 80.1699C70.427 79.9543 69.6441 79.6365 68.9065 79.2167Z" fill="#C07858"/>
<path d="M46.3717 62.6041C43.7504 60.6523 41.9235 57.6793 41.4923 54.2751C40.471 53.8893 39.5973 53.1857 38.9958 52.2893L38.4512 56.7261C38.4512 59.6651 41.844 61.6282 46.3717 62.6041Z" fill="#C07858"/>
<path d="M44.4321 41.6341H46.0548C47.3937 41.6341 48.6306 40.749 49.0504 39.4894C49.3115 38.6951 50.049 38.1731 50.866 38.1731C51.6944 38.1731 52.4206 38.6951 52.6816 39.4894C53.1014 40.7604 54.3383 41.6341 55.6887 41.6341H63.0304C64.6418 41.6341 65.9695 42.905 66.0603 44.4823C66.6389 44.7092 67.1609 45.0383 67.6149 45.4581L67.3425 43.2455C67.3425 39.4781 65.8106 36.0739 63.3482 33.6001C60.8858 31.1377 57.4816 29.6285 53.7256 29.6285C46.2023 29.6285 40.12 35.7107 40.12 43.2455L39.8477 45.4468C40.3016 45.0383 40.8235 44.6979 41.4023 44.4709C41.5044 42.8936 42.8207 41.6341 44.4321 41.6341Z" fill="#C07858"/>
<path d="M61.1016 62.6042C65.6292 61.6282 69.0107 59.6651 69.0107 56.7261L68.4547 52.278C67.8646 53.1744 66.9909 53.878 65.9696 54.2751C65.5384 57.6793 63.7228 60.641 61.1016 62.6042Z" fill="#C07858"/>
<path d="M48.6523 63.9545V64.6239L53.3712 71.0318C53.5467 71.2701 53.9029 71.2703 54.0787 71.0321L58.8083 64.6239V63.9431C57.2651 64.6467 55.5402 65.0438 53.7247 65.0438C51.9204 65.0438 50.1956 64.658 48.6523 63.9545Z" fill="#C07858"/>
<path d="M64.3675 45.7987V44.6752C64.3675 43.9377 63.7662 43.3362 63.0286 43.3362H55.6868C53.5535 43.3362 51.7039 41.9519 51.0684 40.0228C51.0003 39.8186 50.728 39.8186 50.6599 40.0228C50.0131 41.9519 48.1635 43.3362 46.0529 43.3362H44.4302C43.6812 43.3362 43.0911 43.9377 43.0911 44.6752V45.7987C41.2416 45.9461 39.7891 47.4781 39.7891 49.3617C39.7891 51.2341 41.2416 52.7659 43.0911 52.9135C43.2047 58.6553 47.8911 63.3418 53.7237 63.3418C59.4882 63.3418 64.2428 58.7347 64.3563 52.9135C66.1945 52.7659 67.6584 51.2341 67.6584 49.3617C67.6583 47.4781 66.2059 45.9575 64.3675 45.7987ZM45.5195 46.5249C45.5195 46.0483 45.9053 45.6738 46.3705 45.6738H49.6727C50.1379 45.6738 50.5238 46.0483 50.5238 46.5249C50.5238 46.9901 50.1379 47.3759 49.6727 47.3759H46.3705C45.9053 47.3759 45.5195 46.9901 45.5195 46.5249ZM46.2004 52.278C46.0642 51.8354 46.3138 51.3589 46.7564 51.2113L48.3223 50.7234L46.9946 49.6454C46.6316 49.3503 46.5748 48.8171 46.8698 48.4539C47.1649 48.0794 47.6982 48.0341 48.0613 48.3291L50.6258 50.4057C50.8755 50.5986 50.9889 50.9163 50.9322 51.2227C50.8755 51.5291 50.6485 51.7787 50.3535 51.8695L47.267 52.834C46.9153 52.9815 46.3592 52.7773 46.2004 52.278ZM56.5946 59.2H51.3067C50.3762 59.2 49.7748 58.19 50.2287 57.373C50.9662 56.0681 52.3507 55.1943 53.9506 55.1943C55.5507 55.1943 56.9464 56.0681 57.6726 57.373C58.1265 58.19 57.5251 59.2 56.5946 59.2ZM61.2584 52.278C61.1108 52.7546 60.6003 52.9815 60.1917 52.834L57.1166 51.8695C56.8102 51.7787 56.5946 51.5291 56.5379 51.2227C56.4698 50.9163 56.5946 50.5986 56.8329 50.4057L59.3974 48.3291C59.7605 48.0341 60.2939 48.0794 60.6003 48.4539C60.8952 48.8171 60.8385 49.3504 60.4754 49.6454L59.1364 50.7234L60.7024 51.2114C61.1563 51.3589 61.4059 51.8354 61.2584 52.278ZM60.5662 47.3759H57.2641C56.7875 47.3759 56.413 46.9901 56.413 46.5249C56.413 46.0483 56.7875 45.6738 57.2641 45.6738H60.5662C61.0315 45.6738 61.4172 46.0483 61.4172 46.5249C61.4172 46.9901 61.0315 47.3759 60.5662 47.3759Z" fill="#C07858"/>
<path d="M71.9978 53.8827C71.9546 54.3504 72.2981 54.7654 72.7669 54.8086L78.5159 55.3438C78.9633 55.3904 79.3975 55.0582 79.4423 54.5753C79.4855 54.1077 79.142 53.6927 78.6733 53.6495L72.9242 53.1142C72.461 53.0688 72.041 53.414 71.9978 53.8827Z" fill="#C07858"/>
<path d="M71.4366 51.1478C71.6301 51.578 72.1358 51.7665 72.5625 51.5739L77.8261 49.2003C78.2539 49.0069 78.4445 48.5032 78.2517 48.075C78.0578 47.6455 77.5547 47.4549 77.1258 47.6489L71.8621 50.0225C71.4343 50.2159 71.2437 50.7195 71.4366 51.1478Z" fill="#C07858"/>
<path d="M71.5133 48.2965L75.4295 44.054C75.7486 43.7082 75.7275 43.1702 75.3818 42.8511C75.0361 42.5325 74.4975 42.5552 74.1795 42.8993L70.2633 47.1418C69.9441 47.487 69.9652 48.0256 70.3109 48.3447C70.657 48.6627 71.1949 48.6423 71.5133 48.2965Z" fill="#C07858"/>
<path d="M34.5218 53.1141L28.7727 53.6494C28.304 53.6926 27.9605 54.1076 28.0037 54.5752C28.0485 55.0583 28.4829 55.3903 28.9301 55.3437L34.6791 54.8085C35.1479 54.7653 35.4914 54.3503 35.4482 53.8826C35.405 53.4139 34.9761 53.067 34.5218 53.1141Z" fill="#C07858"/>
<path d="M29.6219 49.2003L34.8856 51.5739C35.312 51.7664 35.8179 51.5781 36.0114 51.1478C36.2042 50.7195 36.0137 50.2159 35.5859 50.0225L30.3222 47.6489C29.8934 47.4549 29.3891 47.6455 29.1963 48.0749C29.0035 48.5032 29.1941 49.0069 29.6219 49.2003Z" fill="#C07858"/>
<path d="M35.9334 48.2965C36.2515 48.642 36.7894 48.663 37.1357 48.3447C37.4815 48.0256 37.5025 47.487 37.1834 47.1418L33.2672 42.8993C32.9492 42.5552 32.4117 42.5325 32.0648 42.8511C31.7191 43.1702 31.698 43.7082 32.0172 44.054L35.9334 48.2965Z" fill="#C07858"/>
<path d="M83.1493 69.8665H81.8671C81.6968 68.2665 81.0614 66.814 80.1082 65.6226L81.016 64.7148C81.3451 64.3744 81.3451 63.841 81.016 63.512C80.6756 63.1716 80.1422 63.1716 79.8132 63.512L78.894 64.4197C77.7139 63.4552 76.2501 62.8198 74.6501 62.6496V61.3673C74.6501 60.9021 74.2756 60.5162 73.7991 60.5162C73.3338 60.5162 72.948 60.9021 72.948 61.3673V62.6609C71.3707 62.8311 69.9068 63.4665 68.7154 64.4311L67.7962 63.512C67.4558 63.1829 66.9224 63.1716 66.5934 63.512C66.253 63.841 66.253 64.3744 66.5934 64.7148L67.5125 65.6339C66.548 66.814 65.9126 68.2779 65.7423 69.8665H64.4487C63.9835 69.8665 63.5977 70.2523 63.5977 70.7176C63.5977 71.1941 63.9835 71.5686 64.4487 71.5686H65.7423C65.9239 73.2707 66.548 74.6211 67.5125 75.8125L66.5934 76.7317C66.253 77.0608 66.253 77.6055 66.5934 77.9345C66.9224 78.2636 67.4558 78.2636 67.7962 77.9345L68.704 77.0154C69.8955 77.9913 71.3707 78.5927 72.948 78.7629V80.0678C72.948 80.5445 73.3338 80.9189 73.7991 80.9189C74.2756 80.9189 74.6501 80.5445 74.6501 80.0678V78.7743C76.2047 78.6154 77.6685 78.0026 78.894 77.0154L79.8132 77.9345C80.1422 78.2636 80.6756 78.2636 81.016 77.9345C81.3451 77.6055 81.3451 77.0608 81.016 76.7317L80.0969 75.8126C81.0841 74.5984 81.6968 73.1346 81.8671 71.5686H83.1493C83.6145 71.5686 84.0004 71.1941 84.0004 70.7176C84.0004 70.2523 83.6145 69.8665 83.1493 69.8665ZM68.6814 74.553C67.8757 73.4863 67.3991 72.1587 67.3991 70.7175C67.3991 70.2296 67.4558 69.753 67.5693 69.2991C69.0104 69.4239 70.1338 70.6154 70.1338 72.0906C70.1338 73.1573 69.5551 74.0764 68.6814 74.553ZM72.3352 69.2878C72.3352 68.1985 73.2203 67.3133 74.3096 67.3133C75.4104 67.3133 76.2954 68.1984 76.2954 69.2878C76.2954 70.3771 75.4104 71.2736 74.3096 71.2736C73.2203 71.2736 72.3352 70.3771 72.3352 69.2878ZM73.7536 77.1289C73.538 77.1289 73.3111 77.1175 73.1068 77.0948C73.0842 76.97 73.0728 76.8338 73.0728 76.709C73.0728 75.2679 74.2416 74.0991 75.6827 74.0991C76.704 74.0991 77.5777 74.6778 78.0089 75.5402C76.8742 76.5274 75.399 77.1289 73.7536 77.1289Z" fill="#C07858"/>
<circle cx="56" cy="56" r="55.5" fill="url(#paint0_radial_49_229)" fill-opacity="0.5" stroke="#C07858"/>
<defs>
<radialGradient id="paint0_radial_49_229" cx="0" cy="0" r="1" gradientUnits="userSpaceOnUse" gradientTransform="translate(56 56) rotate(90) scale(56)">
<stop stop-color="#FEEAE0"/>
<stop offset="1" stop-color="#FAB89B" stop-opacity="0.22"/>
</radialGradient>
</defs>
</svg>
