<svg width="112" height="112" viewBox="0 0 112 112" fill="none" xmlns="http://www.w3.org/2000/svg">
<circle cx="56" cy="56" r="55.5" fill="url(#paint0_radial_49_246)" fill-opacity="0.5" stroke="#C07858"/>
<path d="M48.9623 49.6013L45.5705 49.8058C45.9456 51.1906 46.6818 52.4638 47.699 53.4843L49.5694 50.6524C49.3561 50.3803 49.1317 50.0025 48.9623 49.6013ZM51.3654 39.7605L52.8858 42.8012V42.8023C53.3226 42.7501 53.6805 42.752 54.1021 42.8023V42.8012L55.6224 39.7605C54.2619 39.3949 52.7645 39.3846 51.3654 39.7605ZM51.3654 39.7605L52.8858 42.8012V42.8023C53.3226 42.7501 53.6805 42.752 54.1021 42.8023V42.8012L55.6224 39.7605C54.2619 39.3949 52.7645 39.3846 51.3654 39.7605ZM48.9623 49.6013L45.5705 49.8058C45.9456 51.1906 46.6818 52.4638 47.699 53.4843L49.5694 50.6524C49.3561 50.3803 49.1317 50.0025 48.9623 49.6013ZM48.9623 49.6013L45.5705 49.8058C45.9456 51.1906 46.6818 52.4638 47.699 53.4843L49.5694 50.6524C49.3561 50.3803 49.1317 50.0025 48.9623 49.6013ZM53.4097 46.0476C52.5902 46.0783 51.8532 46.7771 51.8532 47.6861C51.8532 48.5677 52.5694 49.3268 53.4939 49.3268C54.3304 49.3268 55.1346 48.6519 55.1346 47.6861C55.1346 46.8087 54.422 46.006 53.4097 46.0476ZM51.3654 39.7605L52.8858 42.8012V42.8023C53.3226 42.7501 53.6805 42.752 54.1021 42.8023V42.8012L55.6224 39.7605C54.2619 39.3949 52.7645 39.3846 51.3654 39.7605ZM53.4097 46.0476C52.5902 46.0783 51.8532 46.7771 51.8532 47.6861C51.8532 48.5677 52.5694 49.3268 53.4939 49.3268C54.3304 49.3268 55.1346 48.6519 55.1346 47.6861C55.1346 46.8087 54.422 46.006 53.4097 46.0476ZM52.8858 42.8023C53.3226 42.7501 53.6805 42.752 54.1021 42.8023V42.8012L55.6224 39.7605C54.2619 39.3949 52.7645 39.3846 51.3654 39.7605L52.8858 42.8012V42.8023ZM48.9623 49.6013L45.5705 49.8058C45.9456 51.1906 46.6818 52.4638 47.699 53.4843L49.5694 50.6524C49.3561 50.3803 49.1317 50.0025 48.9623 49.6013ZM78.0528 61.8759L73.1909 48.9111C73.2215 48.4714 73.2358 48.0722 73.2358 47.6861C73.2358 35.2726 61.8767 25.8223 49.3298 28.4375C37.3462 30.9346 30.5407 44.0492 35.4562 55.4651C38.7977 63.2256 40.422 70.2237 40.4231 76.8597V82.3593C40.422 83.265 41.1559 84 42.0627 84H58.4696C59.3752 84 60.1103 83.265 60.1103 82.3593V73.9371H68.3137C69.0465 73.9371 69.6908 73.4504 69.892 72.7449C69.9369 72.5874 70.9147 69.1244 71.8073 64.093H76.5171C77.6613 64.093 78.4553 62.9478 78.0528 61.8759ZM64.9579 48.373C64.7457 51.9519 62.8261 55.277 59.8226 57.2666C59.0679 57.7665 58.0474 57.5608 57.5475 56.8028L54.6818 52.4627C53.9059 52.6567 53.0823 52.6567 52.306 52.4627L49.4403 56.8028C48.9404 57.5608 47.9199 57.7665 47.1652 57.2666C44.1617 55.277 42.2421 51.9519 42.0299 48.373C41.9763 47.4695 42.6654 46.6929 43.5688 46.6382L48.7632 46.3265C48.9886 45.5444 49.402 44.8422 49.9522 44.2724L47.6246 39.6161C47.2199 38.8056 47.5469 37.8212 48.3553 37.4154C51.5629 35.8072 55.374 35.7817 58.6325 37.4154C59.4409 37.8212 59.7679 38.8056 59.3632 39.6161L57.0356 44.2724C57.5858 44.8422 57.9992 45.5444 58.2246 46.3265L63.419 46.6382C64.3224 46.6929 65.0115 47.4695 64.9579 48.373ZM58.0255 49.6013C57.8545 50.0063 57.6228 50.3917 57.4184 50.6524L59.2888 53.4843C60.306 52.4638 61.0422 51.1906 61.4173 49.8058L58.0255 49.6013ZM51.3654 39.7605L52.8858 42.8012V42.8023C53.3226 42.7501 53.6805 42.752 54.1021 42.8023V42.8012L55.6224 39.7605C54.2619 39.3949 52.7645 39.3846 51.3654 39.7605ZM53.4097 46.0476C52.5902 46.0783 51.8532 46.7771 51.8532 47.6861C51.8532 48.5677 52.5694 49.3268 53.4939 49.3268C54.3304 49.3268 55.1346 48.6519 55.1346 47.6861C55.1346 46.8087 54.422 46.006 53.4097 46.0476ZM48.9623 49.6013L45.5705 49.8058C45.9456 51.1906 46.6818 52.4638 47.699 53.4843L49.5694 50.6524C49.3561 50.3803 49.1317 50.0025 48.9623 49.6013ZM48.9623 49.6013L45.5705 49.8058C45.9456 51.1906 46.6818 52.4638 47.699 53.4843L49.5694 50.6524C49.3561 50.3803 49.1317 50.0025 48.9623 49.6013ZM51.3654 39.7605L52.8858 42.8012V42.8023C53.3226 42.7501 53.6805 42.752 54.1021 42.8023V42.8012L55.6224 39.7605C54.2619 39.3949 52.7645 39.3846 51.3654 39.7605ZM51.3654 39.7605L52.8858 42.8012V42.8023C53.3226 42.7501 53.6805 42.752 54.1021 42.8023V42.8012L55.6224 39.7605C54.2619 39.3949 52.7645 39.3846 51.3654 39.7605ZM48.9623 49.6013L45.5705 49.8058C45.9456 51.1906 46.6818 52.4638 47.699 53.4843L49.5694 50.6524C49.3561 50.3803 49.1317 50.0025 48.9623 49.6013Z" fill="#C07858"/>
<path d="M48.9631 49.6013H48.9609C49.2035 50.1758 49.2906 50.3768 48.9631 49.6013ZM52.8866 42.8012V42.8023C53.3147 42.7512 53.2567 42.7565 52.8866 42.8012ZM54.1029 42.8023V42.8012C53.7357 42.7568 53.6714 42.7508 54.1029 42.8023ZM58.0263 49.6013C57.7066 50.3584 57.7783 50.1936 58.0285 49.6013H58.0263Z" fill="#C07858"/>
<defs>
<radialGradient id="paint0_radial_49_246" cx="0" cy="0" r="1" gradientUnits="userSpaceOnUse" gradientTransform="translate(56 56) rotate(90) scale(56)">
<stop stop-color="#FEEAE0"/>
<stop offset="1" stop-color="#FAB89B" stop-opacity="0.22"/>
</radialGradient>
</defs>
</svg>
