<svg width="112" height="112" viewBox="0 0 112 112" fill="none" xmlns="http://www.w3.org/2000/svg">
<circle cx="56" cy="56" r="55.5" fill="url(#paint0_radial_49_219)" fill-opacity="0.5" stroke="#C07858"/>
<path d="M59.1061 33.7348C59.659 33.7348 60.1402 33.3257 60.2146 32.7624L60.6778 29.2667C60.7593 28.6531 60.3278 28.0898 59.7148 28.0089C59.1055 27.9323 58.539 28.3578 58.4575 28.9714L57.9943 32.4671C57.9128 33.0807 58.3443 33.644 58.9573 33.7249C59.0071 33.7315 59.0569 33.7348 59.1061 33.7348Z" fill="#C07858"/>
<path d="M52.1119 33.9458C52.2541 33.9458 52.399 33.9185 52.539 33.8605C53.1105 33.6243 53.3829 32.9702 53.1466 32.3982L51.8002 29.1398C51.5639 28.5678 50.9109 28.2954 50.3373 28.5328C49.7658 28.769 49.4934 29.4231 49.7297 29.9951L51.0761 33.2535C51.2544 33.6855 51.6717 33.9458 52.1119 33.9458Z" fill="#C07858"/>
<path d="M56.0001 54.2411C60.6817 54.2411 64.4786 50.4554 64.4786 45.7737C64.4786 41.092 60.6817 37.2952 56.0001 37.2952C51.3184 37.2952 47.5215 41.092 47.5215 45.7737C47.5215 50.4554 51.3184 54.2411 56.0001 54.2411Z" fill="#C07858"/>
<path d="M65.2618 37.0487C65.5979 37.0487 65.9339 36.9031 66.1579 36.6119L68.3083 33.8118C68.6779 33.3302 68.5883 32.6246 68.0955 32.2438C67.6027 31.863 66.9083 31.9638 66.5274 32.4454L64.377 35.2455C63.9962 35.7383 64.097 36.4439 64.5786 36.8135C64.7914 36.9703 65.0267 37.0487 65.2618 37.0487Z" fill="#C07858"/>
<path d="M71.1876 41.3719C70.5716 40.4872 69.6307 39.9047 68.5667 39.7255C67.5027 39.5575 66.4275 39.8152 65.5538 40.4647C65.4978 40.5096 65.4418 40.5544 65.397 40.5991C66.237 42.1336 66.7187 43.9032 66.7187 45.7736C66.7187 46.6809 66.6066 47.5657 66.3938 48.4057L72.554 57.2763L66.1475 57.6235H45.9199L39.4461 57.2763L45.6062 48.4057C45.3934 47.5657 45.2815 46.6809 45.2815 45.7736C45.2815 43.9032 45.7631 42.1448 46.6143 40.6103C46.5583 40.5544 46.5023 40.5096 46.4463 40.4647C45.5727 39.8152 44.5086 39.5575 43.4334 39.7255C42.3694 39.9047 41.4398 40.4872 40.8126 41.3719L31.6172 54.5211C30.7884 55.7083 30.3516 57.097 30.3516 58.5307C30.3516 62.0699 33.006 65.0604 36.5117 65.486L44.7327 66.4717V82.8799C44.7327 83.4959 45.2366 84 45.8527 84H66.1475C66.7635 84 67.2675 83.4959 67.2675 82.8799V66.4717L75.4884 65.486C78.9941 65.0604 81.6485 62.0699 81.6485 58.5307C81.6485 57.097 81.2118 55.7083 80.3829 54.5211L71.1876 41.3719Z" fill="#C07858"/>
<path d="M42.482 33.6775C42.1011 34.1591 42.1908 34.8647 42.6836 35.2455L45.4836 37.396C45.6852 37.5528 45.9205 37.6312 46.1556 37.6312C46.4917 37.6312 46.8277 37.4744 47.0517 37.1944C47.4212 36.7016 47.3317 35.9959 46.8389 35.6152L44.05 33.4647C43.5572 33.0951 42.8516 33.1847 42.482 33.6775Z" fill="#C07858"/>
<defs>
<radialGradient id="paint0_radial_49_219" cx="0" cy="0" r="1" gradientUnits="userSpaceOnUse" gradientTransform="translate(56 56) rotate(90) scale(56)">
<stop stop-color="#FEEAE0"/>
<stop offset="1" stop-color="#FAB89B" stop-opacity="0.22"/>
</radialGradient>
</defs>
</svg>
