<svg width="112" height="112" viewBox="0 0 112 112" fill="none" xmlns="http://www.w3.org/2000/svg">
<circle cx="56" cy="56" r="55.5" fill="url(#paint0_radial_49_204)" fill-opacity="0.5" stroke="#C07858"/>
<path d="M63.4375 52.3906C64.342 52.3906 65.0781 51.6545 65.0781 50.75C65.0781 49.8455 64.342 49.1094 63.4375 49.1094C62.533 49.1094 61.7969 49.8455 61.7969 50.75C61.7969 51.6545 62.533 52.3906 63.4375 52.3906Z" fill="#C07858"/>
<path d="M36.3125 56C36.3125 66.8559 45.1441 75.6875 56 75.6875C66.8559 75.6875 75.6875 66.8559 75.6875 56C75.6875 45.1441 66.8559 36.3125 56 36.3125C45.1441 36.3125 36.3125 45.1441 36.3125 56ZM48.125 51.8437C47.2188 51.8437 46.4844 51.1093 46.4844 50.2031C46.4844 49.2969 47.2188 48.5625 48.125 48.5625C49.0312 48.5625 49.7656 49.2969 49.7656 50.2031C49.7656 51.1093 49.0312 51.8437 48.125 51.8437ZM56 70.7656C52.3812 70.7656 49.4375 67.8219 49.4375 64.2031C49.4375 60.5843 52.3812 57.6406 56 57.6406C59.6188 57.6406 62.5625 60.5843 62.5625 64.2031C62.5625 67.8219 59.6188 70.7656 56 70.7656ZM63.4375 45.8281C66.1514 45.8281 68.3594 48.0361 68.3594 50.75C68.3594 53.4639 66.1514 55.6719 63.4375 55.6719C60.7236 55.6719 58.5156 53.4639 58.5156 50.75C58.5156 48.0361 60.7236 45.8281 63.4375 45.8281Z" fill="#C07858"/>
<path d="M56 60.9219C54.1906 60.9219 52.7188 62.3937 52.7188 64.2031C52.7188 66.0125 54.1906 67.4844 56 67.4844C57.8094 67.4844 59.2812 66.0125 59.2812 64.2031C59.2812 62.3937 57.8094 60.9219 56 60.9219Z" fill="#C07858"/>
<path d="M36.6604 43.6209C38.4523 40.831 40.8312 38.4521 43.6211 36.6602L43.1618 36.201C41.2426 34.2822 38.1203 34.2818 36.2011 36.201C34.2819 38.1201 34.2819 41.2425 36.2011 43.1616L36.6604 43.6209Z" fill="#C07858"/>
<path d="M68.8382 36.201L68.3789 36.6602C71.1688 38.4521 73.5477 40.831 75.3396 43.6209L75.7989 43.1616C77.7181 41.2425 77.7181 38.1201 75.7989 36.201C73.8797 34.2818 70.7574 34.2822 68.8382 36.201Z" fill="#C07858"/>
<path d="M60.9219 33.564V32.9219C60.9219 30.208 58.7139 28 56 28C53.2861 28 51.0781 30.208 51.0781 32.9219V33.564C52.6645 33.2162 54.3111 33.0312 56 33.0312C57.6889 33.0312 59.3355 33.2162 60.9219 33.564Z" fill="#C07858"/>
<path d="M32.9219 51.0781C30.208 51.0781 28 53.2861 28 56C28 58.7139 30.208 60.9219 32.9219 60.9219H33.564C33.2162 59.3355 33.0312 57.6889 33.0312 56C33.0312 54.3111 33.2162 52.6645 33.564 51.0781H32.9219Z" fill="#C07858"/>
<path d="M51.0781 78.436V79.0782C51.0781 81.7921 53.2861 84.0001 56 84.0001C58.7139 84.0001 60.9219 81.7921 60.9219 79.0782V78.436C59.3355 78.7838 57.6889 78.9688 56 78.9688C54.3111 78.9688 52.6645 78.7838 51.0781 78.436Z" fill="#C07858"/>
<path d="M79.0777 51.0781H78.4355C78.7833 52.6645 78.9683 54.3111 78.9683 56C78.9683 57.6889 78.7833 59.3355 78.4355 60.9219H79.0777C81.7916 60.9219 83.9996 58.7139 83.9996 56C83.9996 53.2861 81.7916 51.0781 79.0777 51.0781Z" fill="#C07858"/>
<path d="M36.6604 68.379L36.2011 68.8383C34.2819 70.7575 34.2819 73.8798 36.2011 75.799C37.1607 76.7586 38.4211 77.2384 39.6815 77.2384C40.9418 77.2384 42.2022 76.7586 43.1614 75.799L43.6207 75.3397C40.8312 73.5479 38.4523 71.1689 36.6604 68.379Z" fill="#C07858"/>
<path d="M75.3396 68.379C73.5477 71.1689 71.1688 73.5479 68.3789 75.3397L68.8382 75.799C69.7978 76.7586 71.0582 77.2384 72.3185 77.2384C73.5789 77.2384 74.8393 76.7586 75.7989 75.799C77.7181 73.8798 77.7181 70.7575 75.7989 68.8383L75.3396 68.379Z" fill="#C07858"/>
<defs>
<radialGradient id="paint0_radial_49_204" cx="0" cy="0" r="1" gradientUnits="userSpaceOnUse" gradientTransform="translate(56 56) rotate(90) scale(56)">
<stop stop-color="#FEEAE0"/>
<stop offset="1" stop-color="#FAB89B" stop-opacity="0.22"/>
</radialGradient>
</defs>
</svg>
